<mxfile host="65bd71144e">
    <diagram id="OEmGGhtrUsx9r3vYYORP" name="Page-1">
        <mxGraphModel dx="1173" dy="638" grid="1" gridSize="10" guides="1" tooltips="1" connect="1" arrows="1" fold="1" page="1" pageScale="1" pageWidth="827" pageHeight="1169" background="none" math="0" shadow="0">
            <root>
                <mxCell id="0"/>
                <mxCell id="1" parent="0"/>
                <mxCell id="5" value="" style="rounded=0;whiteSpace=wrap;html=1;" vertex="1" parent="1">
                    <mxGeometry x="150" y="120" width="160" height="280" as="geometry"/>
                </mxCell>
                <mxCell id="6" value="Main Page" style="text;html=1;strokeColor=none;fillColor=none;align=center;verticalAlign=middle;whiteSpace=wrap;rounded=0;" vertex="1" parent="1">
                    <mxGeometry x="180" y="90" width="100" height="20" as="geometry"/>
                </mxCell>
                <mxCell id="33" style="edgeStyle=none;html=1;entryX=-0.005;entryY=0.909;entryDx=0;entryDy=0;entryPerimeter=0;fontSize=8;fontColor=#FFCCCC;" edge="1" parent="1" source="9" target="21">
                    <mxGeometry relative="1" as="geometry"/>
                </mxCell>
                <mxCell id="9" value="&lt;font style=&quot;font-size: 20px&quot;&gt;StepIN&lt;/font&gt;" style="text;html=1;strokeColor=#000000;fillColor=#FFFAFA;align=center;verticalAlign=middle;whiteSpace=wrap;rounded=1;fontColor=#CC6600;fontStyle=1" vertex="1" parent="1">
                    <mxGeometry x="192.5" y="360" width="75" height="30" as="geometry"/>
                </mxCell>
                <mxCell id="11" value="&lt;b&gt;Gogle map&lt;br&gt;marks runing path in neerest aria&amp;nbsp;&lt;br&gt;&lt;/b&gt;" style="text;html=1;align=center;verticalAlign=middle;whiteSpace=wrap;rounded=0;fontSize=16;fontStyle=4;fontColor=#FFCCCC;" vertex="1" parent="1">
                    <mxGeometry x="170" y="180" width="120" height="110" as="geometry"/>
                </mxCell>
                <mxCell id="13" value="&lt;font style=&quot;font-size: 8px&quot;&gt;Feed curently user runing and the place&lt;/font&gt;" style="text;html=1;strokeColor=none;fillColor=none;align=center;verticalAlign=middle;whiteSpace=wrap;rounded=0;fontSize=8;fontColor=#CCFFCC;" vertex="1" parent="1">
                    <mxGeometry x="150" y="121" width="160" height="10" as="geometry"/>
                </mxCell>
                <mxCell id="15" value="" style="endArrow=none;html=1;fontSize=8;fontColor=#FFFAFA;entryX=1;entryY=0.121;entryDx=0;entryDy=0;entryPerimeter=0;" edge="1" parent="1">
                    <mxGeometry width="50" height="50" relative="1" as="geometry">
                        <mxPoint x="150" y="133" as="sourcePoint"/>
                        <mxPoint x="310" y="132.88" as="targetPoint"/>
                    </mxGeometry>
                </mxCell>
                <mxCell id="16" value="&lt;font style=&quot;font-size: 8px&quot;&gt;Feed curently user runing and the place&lt;/font&gt;" style="text;html=1;strokeColor=none;fillColor=none;align=center;verticalAlign=middle;whiteSpace=wrap;rounded=0;fontSize=8;fontColor=#CCFFCC;" vertex="1" parent="1">
                    <mxGeometry x="150" y="135" width="160" height="10" as="geometry"/>
                </mxCell>
                <mxCell id="17" value="" style="endArrow=none;html=1;fontSize=8;fontColor=#FFFAFA;entryX=1;entryY=0.121;entryDx=0;entryDy=0;entryPerimeter=0;" edge="1" parent="1">
                    <mxGeometry width="50" height="50" relative="1" as="geometry">
                        <mxPoint x="150" y="147.00000000000006" as="sourcePoint"/>
                        <mxPoint x="310" y="146.88000000000005" as="targetPoint"/>
                    </mxGeometry>
                </mxCell>
                <mxCell id="21" value="" style="rounded=0;whiteSpace=wrap;html=1;" vertex="1" parent="1">
                    <mxGeometry x="390" y="121" width="160" height="280" as="geometry"/>
                </mxCell>
                <mxCell id="22" value="user name" style="text;html=1;strokeColor=default;fillColor=none;align=center;verticalAlign=middle;whiteSpace=wrap;rounded=0;fontSize=12;fontColor=#CC6600;" vertex="1" parent="1">
                    <mxGeometry x="420" y="170" width="100" height="20" as="geometry"/>
                </mxCell>
                <mxCell id="23" value="Password" style="text;html=1;strokeColor=default;fillColor=none;align=center;verticalAlign=middle;whiteSpace=wrap;rounded=0;fontSize=12;fontColor=#CC6600;" vertex="1" parent="1">
                    <mxGeometry x="420" y="200" width="100" height="20" as="geometry"/>
                </mxCell>
                <mxCell id="32" style="edgeStyle=none;html=1;entryX=-0.007;entryY=0.858;entryDx=0;entryDy=0;entryPerimeter=0;fontSize=8;fontColor=#FFCCCC;" edge="1" parent="1" source="24" target="31">
                    <mxGeometry relative="1" as="geometry"/>
                </mxCell>
                <mxCell id="24" value="SignIn" style="text;html=1;strokeColor=default;fillColor=none;align=center;verticalAlign=middle;whiteSpace=wrap;rounded=0;fontSize=12;fontColor=#CC6600;" vertex="1" parent="1">
                    <mxGeometry x="420" y="350" width="100" height="20" as="geometry"/>
                </mxCell>
                <mxCell id="25" value="NOT SIGN YET ?" style="text;html=1;strokeColor=none;fillColor=none;align=center;verticalAlign=middle;whiteSpace=wrap;rounded=0;fontSize=6;fontColor=#663300;" vertex="1" parent="1">
                    <mxGeometry x="420" y="375" width="60" height="10" as="geometry"/>
                </mxCell>
                <mxCell id="26" value="Register" style="text;html=1;strokeColor=none;fillColor=none;align=center;verticalAlign=middle;whiteSpace=wrap;rounded=0;fontSize=6;fontColor=#663300;" vertex="1" parent="1">
                    <mxGeometry x="480" y="375" width="40" height="10" as="geometry"/>
                </mxCell>
                <mxCell id="27" value="OR use Google" style="text;html=1;strokeColor=default;fillColor=none;align=center;verticalAlign=middle;whiteSpace=wrap;rounded=0;fontSize=12;fontColor=#FF9933;" vertex="1" parent="1">
                    <mxGeometry x="420" y="290" width="100" height="20" as="geometry"/>
                </mxCell>
                <mxCell id="28" value="Login Page" style="text;html=1;strokeColor=none;fillColor=none;align=center;verticalAlign=middle;whiteSpace=wrap;rounded=0;" vertex="1" parent="1">
                    <mxGeometry x="420" y="90" width="100" height="20" as="geometry"/>
                </mxCell>
                <mxCell id="29" value="" style="curved=1;endArrow=classic;html=1;fontSize=6;fontColor=#FFCCCC;exitX=0;exitY=0;exitDx=0;exitDy=0;" edge="1" parent="1" source="16" target="30">
                    <mxGeometry width="50" height="50" relative="1" as="geometry">
                        <mxPoint x="160" y="140" as="sourcePoint"/>
                        <mxPoint x="110" y="40" as="targetPoint"/>
                        <Array as="points">
                            <mxPoint x="100" y="110"/>
                            <mxPoint x="50" y="60"/>
                        </Array>
                    </mxGeometry>
                </mxCell>
                <mxCell id="30" value="&lt;u style=&quot;font-size: 8px;&quot;&gt;Randon Users runing&lt;/u&gt;&lt;br style=&quot;font-size: 8px;&quot;&gt;Cange users list every few seconds" style="text;html=1;strokeColor=none;fillColor=none;align=center;verticalAlign=middle;whiteSpace=wrap;rounded=0;fontSize=8;fontColor=#FFFAFA;" vertex="1" parent="1">
                    <mxGeometry x="110" y="40" width="80" height="30" as="geometry"/>
                </mxCell>
                <mxCell id="31" value="" style="rounded=0;whiteSpace=wrap;html=1;" vertex="1" parent="1">
                    <mxGeometry x="640" y="120" width="160" height="280" as="geometry"/>
                </mxCell>
                <mxCell id="34" value="User Page" style="text;html=1;strokeColor=none;fillColor=none;align=center;verticalAlign=middle;whiteSpace=wrap;rounded=0;" vertex="1" parent="1">
                    <mxGeometry x="670" y="90" width="100" height="20" as="geometry"/>
                </mxCell>
                <mxCell id="36" value="" style="shape=actor;whiteSpace=wrap;html=1;rounded=1;fontSize=8;fontColor=#FFCCCC;strokeColor=default;fillColor=#FFFAFA;" vertex="1" parent="1">
                    <mxGeometry x="773" y="361.5" width="20" height="31" as="geometry"/>
                </mxCell>
                <mxCell id="37" value="&lt;b&gt;Gogle map&lt;br&gt;marks runing path in neerest aria&amp;nbsp;&lt;br&gt;&lt;/b&gt;" style="text;html=1;align=center;verticalAlign=middle;whiteSpace=wrap;rounded=0;fontSize=16;fontStyle=4;fontColor=#FFCCCC;" vertex="1" parent="1">
                    <mxGeometry x="640" y="179" width="160" height="70" as="geometry"/>
                </mxCell>
                <mxCell id="38" value="&lt;font style=&quot;font-size: 8px&quot;&gt;Feed curently user runing and the place&lt;/font&gt;" style="text;html=1;strokeColor=none;fillColor=none;align=center;verticalAlign=middle;whiteSpace=wrap;rounded=0;fontSize=8;fontColor=#CCFFCC;" vertex="1" parent="1">
                    <mxGeometry x="640" y="145.64" width="160" height="10" as="geometry"/>
                </mxCell>
                <mxCell id="39" value="" style="endArrow=none;html=1;fontSize=8;fontColor=#FFFAFA;entryX=1;entryY=0.121;entryDx=0;entryDy=0;entryPerimeter=0;" edge="1" parent="1">
                    <mxGeometry width="50" height="50" relative="1" as="geometry">
                        <mxPoint x="640" y="157.64" as="sourcePoint"/>
                        <mxPoint x="800" y="157.51999999999998" as="targetPoint"/>
                    </mxGeometry>
                </mxCell>
                <mxCell id="40" value="&lt;font style=&quot;font-size: 8px&quot;&gt;Feed curently user runing and the place&lt;/font&gt;" style="text;html=1;strokeColor=none;fillColor=none;align=center;verticalAlign=middle;whiteSpace=wrap;rounded=0;fontSize=8;fontColor=#CCFFCC;" vertex="1" parent="1">
                    <mxGeometry x="640" y="159.64" width="160" height="10" as="geometry"/>
                </mxCell>
                <mxCell id="44" value="" style="curved=1;endArrow=classic;html=1;fontSize=6;fontColor=#FFCCCC;exitX=0;exitY=0.5;exitDx=0;exitDy=0;" edge="1" target="45" parent="1" source="40">
                    <mxGeometry width="50" height="50" relative="1" as="geometry">
                        <mxPoint x="640" y="131" as="sourcePoint"/>
                        <mxPoint x="600" y="36" as="targetPoint"/>
                        <Array as="points">
                            <mxPoint x="590" y="106"/>
                            <mxPoint x="540" y="56"/>
                        </Array>
                    </mxGeometry>
                </mxCell>
                <mxCell id="45" value="&lt;span style=&quot;font-size: 8px&quot;&gt;Friends User runing -&amp;nbsp;&lt;/span&gt;or they plan and time to run&lt;br style=&quot;font-size: 8px&quot;&gt;Cange friend list every few seconds" style="text;html=1;strokeColor=none;fillColor=none;align=center;verticalAlign=middle;whiteSpace=wrap;rounded=0;fontSize=8;fontColor=#FFFAFA;" vertex="1" parent="1">
                    <mxGeometry x="600" y="36" width="180" height="30" as="geometry"/>
                </mxCell>
                <mxCell id="46" value="&lt;font style=&quot;font-size: 12px;&quot;&gt;next schedule to run&lt;/font&gt;" style="text;html=1;strokeColor=none;fillColor=none;align=center;verticalAlign=middle;whiteSpace=wrap;rounded=0;fontSize=12;fontColor=#CCFFCC;" vertex="1" parent="1">
                    <mxGeometry x="640" y="380" width="130" height="10" as="geometry"/>
                </mxCell>
                <mxCell id="47" value="" style="curved=1;endArrow=classic;html=1;fontSize=12;fontColor=#FFFAFA;exitX=1;exitY=0.75;exitDx=0;exitDy=0;" edge="1" parent="1" source="36">
                    <mxGeometry width="50" height="50" relative="1" as="geometry">
                        <mxPoint x="800" y="390" as="sourcePoint"/>
                        <mxPoint x="850" y="340" as="targetPoint"/>
                        <Array as="points">
                            <mxPoint x="850" y="390"/>
                            <mxPoint x="800" y="340"/>
                        </Array>
                    </mxGeometry>
                </mxCell>
                <mxCell id="48" value="Find new roudes" style="text;html=1;strokeColor=default;fillColor=none;align=center;verticalAlign=middle;whiteSpace=wrap;rounded=0;fontSize=12;fontColor=#CC6600;" vertex="1" parent="1">
                    <mxGeometry x="670" y="252" width="100" height="20" as="geometry"/>
                </mxCell>
                <mxCell id="49" value="Open MENU for user" style="text;html=1;strokeColor=none;fillColor=none;align=center;verticalAlign=middle;whiteSpace=wrap;rounded=0;fontSize=12;fontColor=#FFFAFA;" vertex="1" parent="1">
                    <mxGeometry x="850" y="320" width="70" height="30" as="geometry"/>
                </mxCell>
                <mxCell id="50" value="" style="rounded=1;whiteSpace=wrap;html=1;fontSize=12;" vertex="1" parent="1">
                    <mxGeometry x="670" y="280" width="100" height="90" as="geometry"/>
                </mxCell>
                <mxCell id="52" value="wheel Menu" style="curved=1;endArrow=classic;html=1;fontSize=9;fontColor=#FFFAFA;exitX=0.75;exitY=0;exitDx=0;exitDy=0;entryX=1.002;entryY=0.548;entryDx=0;entryDy=0;entryPerimeter=0;" edge="1" parent="1" source="49" target="50">
                    <mxGeometry width="50" height="50" relative="1" as="geometry">
                        <mxPoint x="840" y="310" as="sourcePoint"/>
                        <mxPoint x="890" y="260" as="targetPoint"/>
                        <Array as="points">
                            <mxPoint x="890" y="310"/>
                            <mxPoint x="840" y="300"/>
                        </Array>
                    </mxGeometry>
                </mxCell>
                <mxCell id="54" value="" style="endArrow=none;html=1;fontSize=12;fontColor=#333333;" edge="1" parent="1">
                    <mxGeometry width="50" height="50" relative="1" as="geometry">
                        <mxPoint x="670" y="298" as="sourcePoint"/>
                        <mxPoint x="770" y="298" as="targetPoint"/>
                    </mxGeometry>
                </mxCell>
                <mxCell id="56" value="" style="endArrow=none;html=1;fontSize=12;fontColor=#333333;" edge="1" parent="1">
                    <mxGeometry width="50" height="50" relative="1" as="geometry">
                        <mxPoint x="670" y="317" as="sourcePoint"/>
                        <mxPoint x="770" y="317" as="targetPoint"/>
                    </mxGeometry>
                </mxCell>
                <mxCell id="57" value="" style="endArrow=none;html=1;fontSize=12;fontColor=#333333;" edge="1" parent="1">
                    <mxGeometry width="50" height="50" relative="1" as="geometry">
                        <mxPoint x="670" y="335" as="sourcePoint"/>
                        <mxPoint x="770" y="335" as="targetPoint"/>
                    </mxGeometry>
                </mxCell>
                <mxCell id="58" value="" style="endArrow=none;html=1;fontSize=12;fontColor=#333333;" edge="1" parent="1">
                    <mxGeometry width="50" height="50" relative="1" as="geometry">
                        <mxPoint x="670" y="353" as="sourcePoint"/>
                        <mxPoint x="770" y="353" as="targetPoint"/>
                    </mxGeometry>
                </mxCell>
                <mxCell id="59" value="My profile" style="text;html=1;strokeColor=none;fillColor=none;align=center;verticalAlign=middle;whiteSpace=wrap;rounded=0;fontSize=12;fontColor=#CC6600;" vertex="1" parent="1">
                    <mxGeometry x="680" y="284" width="80" height="10" as="geometry"/>
                </mxCell>
                <mxCell id="60" value="Plane schedule" style="text;html=1;strokeColor=none;fillColor=none;align=center;verticalAlign=middle;whiteSpace=wrap;rounded=0;fontSize=12;fontColor=#CC6600;" vertex="1" parent="1">
                    <mxGeometry x="670" y="302" width="100" height="10" as="geometry"/>
                </mxCell>
                <mxCell id="62" value="Share to" style="text;html=1;strokeColor=none;fillColor=none;align=center;verticalAlign=middle;whiteSpace=wrap;rounded=0;fontSize=12;fontColor=#CC6600;" vertex="1" parent="1">
                    <mxGeometry x="670" y="320" width="100" height="10" as="geometry"/>
                </mxCell>
                <mxCell id="63" value="Search friends" style="text;html=1;strokeColor=none;fillColor=none;align=center;verticalAlign=middle;whiteSpace=wrap;rounded=0;fontSize=12;fontColor=#CC6600;" vertex="1" parent="1">
                    <mxGeometry x="670" y="340" width="100" height="10" as="geometry"/>
                </mxCell>
                <mxCell id="64" value="Etc..." style="text;html=1;strokeColor=none;fillColor=none;align=center;verticalAlign=middle;whiteSpace=wrap;rounded=0;fontSize=12;fontColor=#CC6600;" vertex="1" parent="1">
                    <mxGeometry x="670" y="355" width="100" height="10" as="geometry"/>
                </mxCell>
                <mxCell id="65" value="" style="rounded=0;whiteSpace=wrap;html=1;" vertex="1" parent="1">
                    <mxGeometry x="940" y="120" width="160" height="280" as="geometry"/>
                </mxCell>
                <mxCell id="66" value="User Profile page" style="text;html=1;strokeColor=none;fillColor=none;align=center;verticalAlign=middle;whiteSpace=wrap;rounded=0;" vertex="1" parent="1">
                    <mxGeometry x="970" y="90" width="100" height="20" as="geometry"/>
                </mxCell>
                <mxCell id="67" value="&lt;font style=&quot;font-size: 20px&quot;&gt;StepIN&lt;/font&gt;" style="text;html=1;strokeColor=none;fillColor=none;align=center;verticalAlign=middle;whiteSpace=wrap;rounded=1;fontColor=#CC6600;fontStyle=1" vertex="1" parent="1">
                    <mxGeometry x="432.5" y="119" width="75" height="30" as="geometry"/>
                </mxCell>
                <mxCell id="69" value="&lt;font style=&quot;font-size: 20px&quot;&gt;StepIN&lt;/font&gt;" style="text;html=1;strokeColor=none;fillColor=none;align=center;verticalAlign=middle;whiteSpace=wrap;rounded=1;fontColor=#CC6600;fontStyle=1" vertex="1" parent="1">
                    <mxGeometry x="680" y="117" width="75" height="30" as="geometry"/>
                </mxCell>
            </root>
        </mxGraphModel>
    </diagram>
</mxfile>